<svg width="70" height="80" viewBox="0 0 70 80" fill="none" xmlns="http://www.w3.org/2000/svg">
<path opacity="0.8" d="M33.3336 1.64014L0.445312 23.4356V23.4766L25.8767 40.3213L33.3336 35.3706V1.64014Z" fill="#98C1D9"/>
<g opacity="0.8">
<path d="M0.445312 57.2272L33.3336 79.0018V45.2716L25.8767 40.3209L0.445312 57.1656V57.2272Z" fill="#EE6C4D"/>
<path d="M0.445312 57.2272L33.3336 79.0018V45.2716L25.8767 40.3209L0.445312 57.1656V57.2272Z" fill="black" fill-opacity="0.3"/>
</g>
<path opacity="0.8" d="M69.4396 23.9696L36.5518 2.17419V35.9046L44.0291 40.8553L69.4396 24.0107V23.9696Z" fill="#98C1D9"/>
<g opacity="0.8">
<path d="M36.5518 79.5365L69.4396 57.7408V57.6996L44.0291 40.855L36.5518 45.8057V79.5365Z" fill="#EE6C4D"/>
<path d="M36.5518 79.5365L69.4396 57.7408V57.6996L44.0291 40.855L36.5518 45.8057V79.5365Z" fill="black" fill-opacity="0.3"/>
</g>
<path opacity="0.8" d="M0.445312 23.4771V57.1664L25.8767 40.3217L0.445312 23.4771Z" fill="#293241"/>
<path opacity="0.8" d="M69.4454 57.7001V24.0107L44.0342 40.8555L69.4454 57.7001Z" fill="#293241"/>
</svg>
