<svg width="24" height="18" viewBox="0 0 24 18" fill="none" xmlns="http://www.w3.org/2000/svg">
<path d="M13.2686 0.668898C13.5686 0.368944 13.9755 0.200439 14.3998 0.200439C14.8241 0.200439 15.231 0.368944 15.531 0.668898L22.731 7.8689C23.031 8.16894 23.1995 8.57584 23.1995 9.0001C23.1995 9.42436 23.031 9.83125 22.731 10.1313L15.531 17.3313C15.2292 17.6228 14.8251 17.784 14.4056 17.7804C13.986 17.7767 13.5847 17.6085 13.2881 17.3118C12.9914 17.0152 12.8232 16.6139 12.8195 16.1943C12.8159 15.7748 12.9772 15.3707 13.2686 15.0689L17.5998 10.6001H2.3998C1.97546 10.6001 1.56849 10.4315 1.26843 10.1315C0.968376 9.83141 0.799805 9.42444 0.799805 9.0001C0.799805 8.57575 0.968376 8.16879 1.26843 7.86873C1.56849 7.56867 1.97546 7.4001 2.3998 7.4001H17.5998L13.2686 2.9313C12.9687 2.63125 12.8001 2.22436 12.8001 1.8001C12.8001 1.37584 12.9687 0.968942 13.2686 0.668898Z" fill="#293241"/>
</svg>
