<svg width="25" height="25" viewBox="0 0 25 25" fill="none" xmlns="http://www.w3.org/2000/svg">
<path d="M9.37467 14.3228C6.93717 14.3228 2.08301 15.5416 2.08301 17.9687V19.7916H16.6663V17.9687C16.6663 15.5416 11.8122 14.3228 9.37467 14.3228ZM4.52051 17.7083C5.39551 17.1041 7.51009 16.4062 9.37467 16.4062C11.2393 16.4062 13.3538 17.1041 14.2288 17.7083H4.52051ZM9.37467 12.4999C11.3851 12.4999 13.0205 10.8645 13.0205 8.85409C13.0205 6.84367 11.3851 5.20825 9.37467 5.20825C7.36426 5.20825 5.72884 6.84367 5.72884 8.85409C5.72884 10.8645 7.36426 12.4999 9.37467 12.4999ZM9.37467 7.29159C10.2393 7.29159 10.9372 7.9895 10.9372 8.85409C10.9372 9.71867 10.2393 10.4166 9.37467 10.4166C8.51009 10.4166 7.81217 9.71867 7.81217 8.85409C7.81217 7.9895 8.51009 7.29159 9.37467 7.29159ZM16.708 14.3853C17.9163 15.2603 18.7497 16.427 18.7497 17.9687V19.7916H22.9163V17.9687C22.9163 15.8645 19.2705 14.6666 16.708 14.3853ZM15.6247 12.4999C17.6351 12.4999 19.2705 10.8645 19.2705 8.85409C19.2705 6.84367 17.6351 5.20825 15.6247 5.20825C15.0622 5.20825 14.5413 5.34367 14.0622 5.57284C14.7184 6.49992 15.1038 7.63534 15.1038 8.85409C15.1038 10.0728 14.7184 11.2083 14.0622 12.1353C14.5413 12.3645 15.0622 12.4999 15.6247 12.4999Z" fill="#293241"/>
</svg>
