<svg width="25" height="25" viewBox="0 0 25 25" fill="none" xmlns="http://www.w3.org/2000/svg">
<path d="M4.16699 4.16659C4.16699 3.61405 4.38649 3.08415 4.77719 2.69345C5.16789 2.30275 5.69779 2.08325 6.25033 2.08325H14.5837C14.8599 2.08331 15.1248 2.1931 15.3201 2.38846L20.5285 7.59679C20.7238 7.7921 20.8336 8.05701 20.8337 8.33325V20.8333C20.8337 21.3858 20.6142 21.9157 20.2235 22.3064C19.8328 22.6971 19.3029 22.9166 18.7503 22.9166H6.25033C5.69779 22.9166 5.16789 22.6971 4.77719 22.3064C4.38649 21.9157 4.16699 21.3858 4.16699 20.8333V4.16659ZM18.3191 8.33325L14.5837 4.59784V8.33325H18.3191ZM12.5003 4.16659H6.25033V20.8333H18.7503V10.4166H13.542C13.2657 10.4166 13.0008 10.3068 12.8054 10.1115C12.6101 9.91614 12.5003 9.65119 12.5003 9.37492V4.16659ZM8.33366 13.5416C8.33366 13.2653 8.44341 13.0004 8.63876 12.805C8.83411 12.6097 9.09906 12.4999 9.37533 12.4999H15.6253C15.9016 12.4999 16.1665 12.6097 16.3619 12.805C16.5572 13.0004 16.667 13.2653 16.667 13.5416C16.667 13.8179 16.5572 14.0828 16.3619 14.2782C16.1665 14.4735 15.9016 14.5833 15.6253 14.5833H9.37533C9.09906 14.5833 8.83411 14.4735 8.63876 14.2782C8.44341 14.0828 8.33366 13.8179 8.33366 13.5416ZM8.33366 17.7083C8.33366 17.432 8.44341 17.167 8.63876 16.9717C8.83411 16.7763 9.09906 16.6666 9.37533 16.6666H15.6253C15.9016 16.6666 16.1665 16.7763 16.3619 16.9717C16.5572 17.167 16.667 17.432 16.667 17.7083C16.667 17.9845 16.5572 18.2495 16.3619 18.4448C16.1665 18.6402 15.9016 18.7499 15.6253 18.7499H9.37533C9.09906 18.7499 8.83411 18.6402 8.63876 18.4448C8.44341 18.2495 8.33366 17.9845 8.33366 17.7083Z" fill="#293241"/>
</svg>
