<svg width="24" height="24" viewBox="0 0 24 24" fill="none" xmlns="http://www.w3.org/2000/svg">
<path d="M14 2.375C14.3447 2.375 14.6861 2.4429 15.0045 2.57482C15.323 2.70673 15.6124 2.90009 15.8562 3.14384C16.0999 3.3876 16.2933 3.67698 16.4252 3.99546C16.5571 4.31394 16.625 4.65528 16.625 5C16.625 5.34472 16.5571 5.68606 16.4252 6.00454C16.2933 6.32302 16.0999 6.6124 15.8562 6.85616C15.6124 7.09991 15.323 7.29327 15.0045 7.42518C14.6861 7.5571 14.3447 7.625 14 7.625C13.3038 7.625 12.6361 7.34844 12.1438 6.85616C11.6516 6.36387 11.375 5.69619 11.375 5C11.375 4.30381 11.6516 3.63613 12.1438 3.14384C12.6361 2.65156 13.3038 2.375 14 2.375ZM14 13.625C17.7125 13.625 21.625 15.45 21.625 16.25V17.625H6.375V16.25C6.375 15.45 10.2875 13.625 14 13.625ZM14 0C11.2375 0 9 2.2375 9 5C9 7.7625 11.2375 10 14 10C16.7625 10 19 7.7625 19 5C19 2.2375 16.7625 0 14 0ZM14 11.25C10.6625 11.25 4 12.925 4 16.25V20H24V16.25C24 12.925 17.3375 11.25 14 11.25Z" fill="#293241"/>
</svg>
