<svg width="25" height="25" viewBox="0 0 25 25" fill="none" xmlns="http://www.w3.org/2000/svg">
<g clip-path="url(#clip0_250_136)">
<path fill-rule="evenodd" clip-rule="evenodd" d="M16.2357 2.08325C16.7882 2.08337 17.318 2.30294 17.7087 2.69367L21.2649 6.24992C21.6556 6.64053 21.8752 7.17035 21.8753 7.72284V16.6666C21.8753 17.2191 21.6558 17.749 21.2651 18.1397C20.8744 18.5304 20.3445 18.7499 19.792 18.7499H17.7087V20.8333C17.7087 21.3858 17.4892 21.9157 17.0985 22.3064C16.7078 22.6971 16.1779 22.9166 15.6253 22.9166H6.25033C5.69779 22.9166 5.16789 22.6971 4.77719 22.3064C4.38649 21.9157 4.16699 21.3858 4.16699 20.8333V8.33325C4.16699 7.78072 4.38649 7.25081 4.77719 6.86011C5.16789 6.46941 5.69779 6.24992 6.25033 6.24992H8.33366V4.16659C8.33366 3.61405 8.55315 3.08415 8.94385 2.69345C9.33455 2.30275 9.86446 2.08325 10.417 2.08325H16.2357ZM8.33366 8.33325H6.25033V20.8333H15.6253V18.7499H10.417C9.86446 18.7499 9.33455 18.5304 8.94385 18.1397C8.55315 17.749 8.33366 17.2191 8.33366 16.6666V8.33325ZM14.5837 4.16659H10.417V16.6666H19.792V9.37492H16.1462C15.7577 9.3749 15.3833 9.23021 15.0957 8.96907C14.8082 8.70792 14.6282 8.34904 14.591 7.96242L14.5837 7.81242V4.16659ZM16.667 4.59784V7.29158H19.3607L16.667 4.59784Z" fill="#293241"/>
</g>
<defs>
<clipPath id="clip0_250_136">
<rect width="25" height="25" fill="white"/>
</clipPath>
</defs>
</svg>
