<svg width="25" height="25" viewBox="0 0 25 25" fill="none" xmlns="http://www.w3.org/2000/svg">
<path d="M5.20801 22.9166C4.63509 22.9166 4.14481 22.7128 3.73717 22.3051C3.32954 21.8975 3.12537 21.4069 3.12467 20.8333V9.08846C2.81217 8.89749 2.56044 8.65027 2.36947 8.34679C2.17849 8.04332 2.08301 7.69159 2.08301 7.29159V4.16659C2.08301 3.59367 2.28717 3.10339 2.69551 2.69575C3.10384 2.28811 3.59412 2.08395 4.16634 2.08325H20.833C21.4059 2.08325 21.8966 2.28742 22.3049 2.69575C22.7132 3.10409 22.917 3.59436 22.9163 4.16659V7.29159C22.9163 7.69089 22.8209 8.04263 22.6299 8.34679C22.4389 8.65096 22.1872 8.89784 21.8747 9.08742V20.8333C21.8747 21.4062 21.6709 21.8968 21.2632 22.3051C20.8556 22.7135 20.365 22.9173 19.7913 22.9166H5.20801ZM5.20801 9.37492V20.8333H19.7913V9.37492H5.20801ZM4.16634 7.29159H20.833V4.16659H4.16634V7.29159ZM9.37467 14.5833H15.6247V12.4999H9.37467V14.5833Z" fill="#293241"/>
</svg>
