<svg width="25" height="25" viewBox="0 0 25 25" fill="none" xmlns="http://www.w3.org/2000/svg">
<path d="M16.667 2.08325C13.792 2.08325 11.4587 4.41658 11.4587 7.29158C11.4587 10.1666 13.792 12.4999 16.667 12.4999C19.542 12.4999 21.8753 10.1666 21.8753 7.29158C21.8753 4.41658 19.542 2.08325 16.667 2.08325ZM16.667 10.4166C14.9378 10.4166 13.542 9.02075 13.542 7.29158C13.542 5.56242 14.9378 4.16658 16.667 4.16658C18.3962 4.16658 19.792 5.56242 19.792 7.29158C19.792 9.02075 18.3962 10.4166 16.667 10.4166ZM19.792 16.6666H17.7087C17.7087 15.4166 16.9274 14.2916 15.7607 13.8541L9.34408 11.4583H1.04199V22.9166H7.29199V21.4166L14.5837 23.4374L22.917 20.8332V19.7916C22.917 18.0624 21.5212 16.6666 19.792 16.6666ZM5.20866 20.8332H3.12533V13.5416H5.20866V20.8332ZM14.5524 21.2603L7.29199 19.2708V13.5416H8.96907L15.0316 15.802C15.3857 15.9374 15.6253 16.2812 15.6253 16.6666C15.6253 16.6666 13.542 16.6145 13.2295 16.5103L10.7503 15.6874L10.0941 17.6666L12.5732 18.4895C13.1045 18.6666 13.6566 18.7499 14.2191 18.7499H19.792C20.1982 18.7499 20.5628 18.9999 20.7295 19.3437L14.5524 21.2603Z" fill="#293241"/>
</svg>
