<svg width="25" height="25" viewBox="0 0 25 25" fill="none" xmlns="http://www.w3.org/2000/svg">
<path d="M12.4997 14.5833C12.7057 14.5833 12.9071 14.5222 13.0784 14.4077C13.2497 14.2932 13.3832 14.1306 13.462 13.9402C13.5409 13.7499 13.5615 13.5404 13.5213 13.3384C13.4811 13.1363 13.3819 12.9507 13.2362 12.805C13.0906 12.6593 12.905 12.5601 12.7029 12.5199C12.5008 12.4797 12.2914 12.5004 12.101 12.5792C11.9107 12.6581 11.748 12.7916 11.6336 12.9629C11.5191 13.1342 11.458 13.3356 11.458 13.5416C11.458 13.8179 11.5678 14.0828 11.7631 14.2782C11.9585 14.4735 12.2234 14.5833 12.4997 14.5833ZM17.708 14.5833C17.914 14.5833 18.1154 14.5222 18.2867 14.4077C18.458 14.2932 18.5915 14.1306 18.6704 13.9402C18.7492 13.7499 18.7699 13.5404 18.7297 13.3384C18.6895 13.1363 18.5903 12.9507 18.4446 12.805C18.2989 12.6593 18.1133 12.5601 17.9112 12.5199C17.7092 12.4797 17.4997 12.5004 17.3094 12.5792C17.119 12.6581 16.9564 12.7916 16.8419 12.9629C16.7274 13.1342 16.6663 13.3356 16.6663 13.5416C16.6663 13.8179 16.7761 14.0828 16.9714 14.2782C17.1668 14.4735 17.4317 14.5833 17.708 14.5833ZM12.4997 18.7499C12.7057 18.7499 12.9071 18.6888 13.0784 18.5744C13.2497 18.4599 13.3832 18.2972 13.462 18.1069C13.5409 17.9165 13.5615 17.7071 13.5213 17.505C13.4811 17.303 13.3819 17.1174 13.2362 16.9717C13.0906 16.826 12.905 16.7268 12.7029 16.6866C12.5008 16.6464 12.2914 16.667 12.101 16.7459C11.9107 16.8247 11.748 16.9582 11.6336 17.1295C11.5191 17.3008 11.458 17.5022 11.458 17.7083C11.458 17.9845 11.5678 18.2495 11.7631 18.4448C11.9585 18.6402 12.2234 18.7499 12.4997 18.7499ZM17.708 18.7499C17.914 18.7499 18.1154 18.6888 18.2867 18.5744C18.458 18.4599 18.5915 18.2972 18.6704 18.1069C18.7492 17.9165 18.7699 17.7071 18.7297 17.505C18.6895 17.303 18.5903 17.1174 18.4446 16.9717C18.2989 16.826 18.1133 16.7268 17.9112 16.6866C17.7092 16.6464 17.4997 16.667 17.3094 16.7459C17.119 16.8247 16.9564 16.9582 16.8419 17.1295C16.7274 17.3008 16.6663 17.5022 16.6663 17.7083C16.6663 17.9845 16.7761 18.2495 16.9714 18.4448C17.1668 18.6402 17.4317 18.7499 17.708 18.7499ZM7.29134 14.5833C7.49736 14.5833 7.69876 14.5222 7.87006 14.4077C8.04136 14.2932 8.17487 14.1306 8.25372 13.9402C8.33256 13.7499 8.35319 13.5404 8.31299 13.3384C8.2728 13.1363 8.17359 12.9507 8.02791 12.805C7.88223 12.6593 7.69662 12.5601 7.49456 12.5199C7.2925 12.4797 7.08305 12.5004 6.89271 12.5792C6.70237 12.6581 6.53969 12.7916 6.42523 12.9629C6.31077 13.1342 6.24967 13.3356 6.24967 13.5416C6.24967 13.8179 6.35942 14.0828 6.55477 14.2782C6.75012 14.4735 7.01507 14.5833 7.29134 14.5833ZM19.7913 4.16659H18.7497V3.12492C18.7497 2.84865 18.6399 2.5837 18.4446 2.38835C18.2492 2.193 17.9843 2.08325 17.708 2.08325C17.4317 2.08325 17.1668 2.193 16.9714 2.38835C16.7761 2.5837 16.6663 2.84865 16.6663 3.12492V4.16659H8.33301V3.12492C8.33301 2.84865 8.22326 2.5837 8.02791 2.38835C7.83256 2.193 7.56761 2.08325 7.29134 2.08325C7.01507 2.08325 6.75012 2.193 6.55477 2.38835C6.35942 2.5837 6.24967 2.84865 6.24967 3.12492V4.16659H5.20801C4.37921 4.16659 3.58435 4.49583 2.9983 5.08188C2.41225 5.66793 2.08301 6.46278 2.08301 7.29158V19.7916C2.08301 20.6204 2.41225 21.4152 2.9983 22.0013C3.58435 22.5873 4.37921 22.9166 5.20801 22.9166H19.7913C20.6201 22.9166 21.415 22.5873 22.001 22.0013C22.5871 21.4152 22.9163 20.6204 22.9163 19.7916V7.29158C22.9163 6.46278 22.5871 5.66793 22.001 5.08188C21.415 4.49583 20.6201 4.16659 19.7913 4.16659ZM20.833 19.7916C20.833 20.0679 20.7233 20.3328 20.5279 20.5282C20.3326 20.7235 20.0676 20.8333 19.7913 20.8333H5.20801C4.93174 20.8333 4.66679 20.7235 4.47144 20.5282C4.27609 20.3328 4.16634 20.0679 4.16634 19.7916V10.4166H20.833V19.7916ZM20.833 8.33325H4.16634V7.29158C4.16634 7.01532 4.27609 6.75037 4.47144 6.55502C4.66679 6.35967 4.93174 6.24992 5.20801 6.24992H19.7913C20.0676 6.24992 20.3326 6.35967 20.5279 6.55502C20.7233 6.75037 20.833 7.01532 20.833 7.29158V8.33325ZM7.29134 18.7499C7.49736 18.7499 7.69876 18.6888 7.87006 18.5744C8.04136 18.4599 8.17487 18.2972 8.25372 18.1069C8.33256 17.9165 8.35319 17.7071 8.31299 17.505C8.2728 17.303 8.17359 17.1174 8.02791 16.9717C7.88223 16.826 7.69662 16.7268 7.49456 16.6866C7.2925 16.6464 7.08305 16.667 6.89271 16.7459C6.70237 16.8247 6.53969 16.9582 6.42523 17.1295C6.31077 17.3008 6.24967 17.5022 6.24967 17.7083C6.24967 17.9845 6.35942 18.2495 6.55477 18.4448C6.75012 18.6402 7.01507 18.7499 7.29134 18.7499Z" fill="#293241"/>
</svg>
