<svg width="25" height="25" viewBox="0 0 25 25" fill="none" xmlns="http://www.w3.org/2000/svg">
<path d="M21.875 12.5V7.29167H5.20833C4.6558 7.29167 4.12589 7.07217 3.73519 6.68147C3.34449 6.29077 3.125 5.76087 3.125 5.20833C3.125 4.6558 3.34449 4.12589 3.73519 3.73519C4.12589 3.34449 4.6558 3.125 5.20833 3.125H19.7917V7.29167" stroke="#293241" stroke-width="1.66667" stroke-linecap="round" stroke-linejoin="round"/>
<path d="M3.125 5.20825V19.7916C3.125 20.3441 3.34449 20.874 3.73519 21.2647C4.12589 21.6554 4.6558 21.8749 5.20833 21.8749H21.875V16.6666" stroke="#293241" stroke-width="1.66667" stroke-linecap="round" stroke-linejoin="round"/>
<path d="M18.7503 12.5C18.1978 12.5 17.6679 12.7195 17.2772 13.1102C16.8865 13.5009 16.667 14.0308 16.667 14.5833C16.667 15.1359 16.8865 15.6658 17.2772 16.0565C17.6679 16.4472 18.1978 16.6667 18.7503 16.6667H22.917V12.5H18.7503Z" stroke="#293241" stroke-width="1.66667" stroke-linecap="round" stroke-linejoin="round"/>
</svg>
