<svg width="25" height="25" viewBox="0 0 25 25" fill="none" xmlns="http://www.w3.org/2000/svg">
<path d="M22.3417 21.2931C22.3417 21.5763 22.2292 21.8478 22.029 22.048C21.8288 22.2482 21.5573 22.3607 21.2741 22.3607H4.1926C3.90945 22.3607 3.6379 22.2482 3.43769 22.048C3.23748 21.8478 3.125 21.5763 3.125 21.2931V10.0727C3.12489 9.91001 3.16196 9.74945 3.23338 9.60328C3.3048 9.4571 3.40868 9.32919 3.53709 9.2293L12.0779 2.58565C12.2653 2.43987 12.4959 2.36072 12.7334 2.36072C12.9708 2.36072 13.2015 2.43987 13.3889 2.58565L21.9296 9.2293C22.058 9.32919 22.1619 9.4571 22.2333 9.60328C22.3048 9.74945 22.3418 9.91001 22.3417 10.0727V21.2931ZM20.2065 20.2255V10.5937L12.7334 4.7817L5.26019 10.5937V20.2255H20.2065Z" fill="#293241"/>
</svg>
