<svg width="268" height="300" viewBox="0 0 268 300" fill="none" xmlns="http://www.w3.org/2000/svg">
<path opacity="0.8" d="M127.738 0L0 83.9404V84.0984L98.7756 148.972L127.738 129.905V0Z" fill="#98C1D9"/>
<g opacity="0.8">
<path d="M0 214.081L127.738 297.941V168.037L98.7756 148.97L0 213.844V214.081Z" fill="#EE6C4D"/>
<path d="M0 214.081L127.738 297.941V168.037L98.7756 148.97L0 213.844V214.081Z" fill="black" fill-opacity="0.3"/>
</g>
<path opacity="0.8" d="M267.976 85.9946L140.239 2.0542V131.96L169.281 151.026L267.976 86.1526V85.9946Z" fill="#98C1D9"/>
<g opacity="0.8">
<path d="M140.239 300L267.976 216.058V215.9L169.281 151.026L140.239 170.093V300Z" fill="#EE6C4D"/>
<path d="M140.239 300L267.976 216.058V215.9L169.281 151.026L140.239 170.093V300Z" fill="black" fill-opacity="0.3"/>
</g>
<path opacity="0.8" d="M0 84.0981V213.846L98.7756 148.972L0 84.0981Z" fill="#293241"/>
<path opacity="0.8" d="M268 215.903V86.1558L169.303 151.03L268 215.903Z" fill="#293241"/>
</svg>
