<svg width="28" height="28" viewBox="0 0 28 28" fill="none" xmlns="http://www.w3.org/2000/svg">
<path d="M7 12.8333C7 9.53401 7 7.88318 8.0255 6.85884C9.04983 5.83334 10.7007 5.83334 14 5.83334H17.5C20.7993 5.83334 22.4502 5.83334 23.4745 6.85884C24.5 7.88318 24.5 9.53401 24.5 12.8333V18.6667C24.5 21.966 24.5 23.6168 23.4745 24.6412C22.4502 25.6667 20.7993 25.6667 17.5 25.6667H14C10.7007 25.6667 9.04983 25.6667 8.0255 24.6412C7 23.6168 7 21.966 7 18.6667V12.8333Z" stroke="#555555" stroke-width="1.25"/>
<path d="M7 22.1667C6.07174 22.1667 5.1815 21.7979 4.52513 21.1416C3.86875 20.4852 3.5 19.5949 3.5 18.6667V11.6667C3.5 7.26718 3.5 5.06684 4.86733 3.70068C6.2335 2.33334 8.43383 2.33334 12.8333 2.33334H17.5C18.4283 2.33334 19.3185 2.70209 19.9749 3.35847C20.6313 4.01485 21 4.90509 21 5.83334" stroke="#555555" stroke-width="1.25"/>
</svg>
