<svg width="40" height="41" viewBox="0 0 40 41" fill="none" xmlns="http://www.w3.org/2000/svg">
<path d="M19.9996 40.5C30.9218 40.5 40 31.4412 40 20.5C40 9.57806 30.9017 0.5 19.9795 0.5C9.03893 0.5 0 9.57806 0 20.5C0 31.4412 9.05817 40.5 19.9996 40.5ZM20.0004 37.167C10.744 37.167 3.35069 29.7546 3.35069 20.5C3.35069 11.2638 10.7239 3.83306 19.9795 3.83306C29.215 3.83306 36.646 11.2647 36.666 20.5C36.6853 29.7554 29.2343 37.167 19.9987 37.167M19.9795 24.0489C20.9199 24.0489 21.4495 23.5193 21.4687 22.5003L21.7632 12.1473C21.7833 11.1467 20.9985 10.4021 19.9594 10.4021C18.9003 10.4021 18.1557 11.1275 18.1749 12.1272L18.4301 22.5003C18.4493 23.5001 18.999 24.0489 19.9795 24.0489ZM19.9795 30.4214C21.0964 30.4214 22.0962 29.5195 22.0962 28.3825C22.0962 27.2255 21.1165 26.3429 19.9795 26.3429C18.8224 26.3429 17.8612 27.2448 17.8612 28.3825C17.8612 29.5003 18.8417 30.4214 19.9795 30.4214Z" fill="#FF0000"/>
</svg>
