<svg width="41" height="40" viewBox="0 0 41 40" fill="none" xmlns="http://www.w3.org/2000/svg">
<path d="M25.5 10V2.5C25.5 1.125 24.375 0 23 0H18C16.625 0 15.5 1.125 15.5 2.5V10C15.5 11.375 16.625 12.5 18 12.5H23C24.375 12.5 25.5 11.375 25.5 10ZM20.5 2.5C21.875 2.5 23 3.625 23 5C23 6.375 21.875 7.5 20.5 7.5C19.125 7.5 18 6.375 18 5C18 3.625 19.125 2.5 20.5 2.5ZM40.5 35V15C40.5 12.25 38.25 10 35.5 10H28V10.825C28 13.125 26.125 15 23.825 15H17.175C14.875 15 13 13.125 13 10.825V10H5.5C2.75 10 0.5 12.25 0.5 15V35C0.5 37.75 2.75 40 5.5 40H35.5C38.25 40 40.5 37.75 40.5 35ZM38 20V35H3V20H38ZM18 25C18 23.625 17.45 22.5 16.75 22.5C16.05 22.5 15.5 23.625 15.5 25C15.5 26.375 16.05 27.5 16.75 27.5C17.45 27.5 18 26.375 18 25ZM25.5 25C25.5 23.625 24.95 22.5 24.25 22.5C23.55 22.5 23 23.625 23 25C23 26.375 23.55 27.5 24.25 27.5C24.95 27.5 25.5 26.375 25.5 25ZM10.6 28.025C12.9 29.225 16.45 30 20.5 30C24.55 30 28.1 29.225 30.4 28.025C29.875 30.525 25.675 32.5 20.5 32.5C15.325 32.5 11.125 30.525 10.6 28.025Z" fill="black"/>
</svg>
