<svg width="40" height="40" viewBox="0 0 40 40" fill="none" xmlns="http://www.w3.org/2000/svg">
<g filter="url(#filter0_i_2_92)">
<path d="M0 40V33C0 31.5833 0.365 30.2808 1.095 29.0925C1.825 27.9042 2.79333 26.9983 4 26.375C6.58333 25.0833 9.20833 24.1142 11.875 23.4675C14.5417 22.8208 17.25 22.4983 20 22.5C22.75 22.5 25.4583 22.8233 28.125 23.47C30.7917 24.1167 33.4167 25.085 36 26.375C37.2083 27 38.1775 27.9067 38.9075 29.095C39.6375 30.2833 40.0017 31.585 40 33V40H0ZM20 20C17.25 20 14.8958 19.0208 12.9375 17.0625C10.9792 15.1042 10 12.75 10 10C10 7.25 10.9792 4.89583 12.9375 2.9375C14.8958 0.979167 17.25 0 20 0C22.75 0 25.1042 0.979167 27.0625 2.9375C29.0208 4.89583 30 7.25 30 10C30 12.75 29.0208 15.1042 27.0625 17.0625C25.1042 19.0208 22.75 20 20 20Z" fill="black"/>
</g>
<defs>
<filter id="filter0_i_2_92" x="0" y="0" width="40" height="44" filterUnits="userSpaceOnUse" color-interpolation-filters="sRGB">
<feFlood flood-opacity="0" result="BackgroundImageFix"/>
<feBlend mode="normal" in="SourceGraphic" in2="BackgroundImageFix" result="shape"/>
<feColorMatrix in="SourceAlpha" type="matrix" values="0 0 0 0 0 0 0 0 0 0 0 0 0 0 0 0 0 0 127 0" result="hardAlpha"/>
<feOffset dy="4"/>
<feGaussianBlur stdDeviation="2"/>
<feComposite in2="hardAlpha" operator="arithmetic" k2="-1" k3="1"/>
<feColorMatrix type="matrix" values="0 0 0 0 0 0 0 0 0 0 0 0 0 0 0 0 0 0 0.25 0"/>
<feBlend mode="normal" in2="shape" result="effect1_innerShadow_2_92"/>
</filter>
</defs>
</svg>
