<svg width="40" height="40" viewBox="0 0 40 40" fill="none" xmlns="http://www.w3.org/2000/svg">
<path d="M25.0069 0C22.6759 0.00135071 20.3772 0.545323 18.293 1.58883C16.2087 2.63233 14.3961 4.14669 12.9988 6.01196C11.6015 7.87723 10.6579 10.0422 10.2427 12.3352C9.82741 14.6283 9.95198 16.9866 10.6065 19.2232L0.626959 29.1982C0.427973 29.3974 0.270186 29.6338 0.16261 29.8939C0.0550346 30.154 -0.000220745 30.4328 6.62753e-07 30.7143V37.8571C6.62753e-07 38.4255 0.225828 38.9705 0.627802 39.3724C1.02978 39.7742 1.57497 40 2.14345 40H9.28827C9.85675 40 10.4019 39.7742 10.8039 39.3724C11.2059 38.9705 11.4317 38.4255 11.4317 37.8571V35.7143H13.5752C14.1436 35.7143 14.6888 35.4885 15.0908 35.0867C15.4928 34.6848 15.7186 34.1398 15.7186 33.5714V31.4286H17.8621C18.1436 31.4288 18.4225 31.3736 18.6827 31.266C18.9429 31.1585 19.1793 31.0007 19.3785 30.8018L20.7825 29.3964C22.8457 29.9999 25.0146 30.1532 27.1423 29.8457C29.2699 29.5383 31.3066 28.7773 33.1145 27.6145C34.9223 26.4516 36.4591 24.9139 37.6208 23.1055C38.7824 21.2972 39.5418 19.2604 39.8475 17.1331C40.1532 15.0057 39.9981 12.8376 39.3926 10.7754C38.7872 8.71328 37.7456 6.80527 36.3383 5.18061C34.931 3.55595 33.1909 2.25258 31.2359 1.35877C29.2809 0.46496 27.1566 0.0015764 25.0069 0ZM25.0069 25.7143C23.6553 25.7171 22.3156 25.4626 21.0594 24.9643C20.6653 24.7954 20.2297 24.7485 19.8088 24.8297C19.3878 24.9109 19.0009 25.1164 18.698 25.4196L16.969 27.1429H13.5752C13.0067 27.1429 12.4615 27.3686 12.0595 27.7705C11.6575 28.1723 11.4317 28.7174 11.4317 29.2857V31.4286H9.28827C8.71979 31.4286 8.1746 31.6543 7.77262 32.0562C7.37065 32.4581 7.14482 33.0031 7.14482 33.5714V35.7143H4.28689V31.6071L14.5844 21.3125C14.8874 21.0098 15.0927 20.6233 15.1739 20.2029C15.2551 19.7824 15.2084 19.3473 15.0399 18.9536C14.194 16.8237 14.0535 14.4789 14.639 12.2633C15.2245 10.0478 16.5051 8.07824 18.2928 6.64394C20.0805 5.20963 22.2811 4.38612 24.5714 4.29432C26.8618 4.20251 29.1212 4.84726 31.018 6.13387C32.9148 7.42049 34.3491 9.2812 35.1101 11.4428C35.8711 13.6044 35.9189 15.9529 35.2463 18.1436C34.5738 20.3344 33.2164 22.2518 31.3734 23.6144C29.5305 24.977 27.2991 25.713 25.0069 25.7143ZM31.4372 11.4286C31.4372 11.9937 31.2696 12.5461 30.9556 13.0159C30.6415 13.4858 30.1952 13.852 29.673 14.0682C29.1508 14.2845 28.5761 14.3411 28.0217 14.2308C27.4674 14.1206 26.9581 13.8485 26.5584 13.4489C26.1587 13.0493 25.8865 12.5402 25.7763 11.986C25.666 11.4317 25.7226 10.8573 25.9389 10.3352C26.1552 9.81312 26.5215 9.36689 26.9915 9.05294C27.4615 8.739 28.014 8.57143 28.5793 8.57143C29.3373 8.57143 30.0642 8.87245 30.6002 9.40827C31.1361 9.94409 31.4372 10.6708 31.4372 11.4286Z" fill="black"/>
</svg>
