<svg width="24" height="30" viewBox="0 0 24 30" fill="none" xmlns="http://www.w3.org/2000/svg">
<path fill-rule="evenodd" clip-rule="evenodd" d="M12.4937 29.8477L12.4971 29.8461L12.5057 29.8402L12.5314 29.8211L12.6326 29.7502C12.7183 29.6886 12.8434 29.5986 13.0011 29.4802C13.3166 29.2452 13.764 28.8994 14.298 28.4552C15.6998 27.2904 17.0105 26.0258 18.2194 24.6719C21.0549 21.4836 24 16.9336 24 11.7302C24 8.62191 22.7366 5.63858 20.4874 3.43858C19.3757 2.34974 18.0535 1.4854 16.5969 0.895307C15.1403 0.305216 13.578 0.00102609 12 0.000244141C10.422 0.000916927 8.8598 0.304976 7.40318 0.894922C5.94657 1.48487 4.62433 2.34905 3.51257 3.43774C1.26122 5.64277 -0.00151116 8.62414 1.35721e-06 11.7311C1.35721e-06 16.9336 2.94514 21.4836 5.78057 24.6719C6.98946 26.0258 8.30022 27.2904 9.702 28.4552C10.2369 28.8994 10.6834 29.2452 10.9989 29.4802C11.1536 29.5962 11.3099 29.7101 11.4677 29.8219L11.4951 29.8402L11.5029 29.8461L11.5063 29.8477C11.802 30.0502 12.198 30.0502 12.4937 29.8477ZM16.2857 11.6669C16.2857 12.772 15.8342 13.8318 15.0305 14.6132C14.2267 15.3946 13.1366 15.8336 12 15.8336C10.8634 15.8336 9.77327 15.3946 8.96954 14.6132C8.16582 13.8318 7.71429 12.772 7.71429 11.6669C7.71429 10.5618 8.16582 9.50203 8.96954 8.72063C9.77327 7.93923 10.8634 7.50024 12 7.50024C13.1366 7.50024 14.2267 7.93923 15.0305 8.72063C15.8342 9.50203 16.2857 10.5618 16.2857 11.6669Z" fill="black"/>
</svg>
