<svg width="162" height="48" viewBox="0 0 162 48" fill="none" xmlns="http://www.w3.org/2000/svg">
<path opacity="0.8" d="M20.4996 0.984131L0.766602 14.0614V14.086L16.0254 24.1929L20.4996 21.2224V0.984131Z" fill="#98C1D9"/>
<g opacity="0.8">
<path d="M0.766602 34.3364L20.4996 47.4011V27.163L16.0254 24.1926L0.766602 34.2993V34.3364Z" fill="#EE6C4D"/>
<path d="M0.766602 34.3364L20.4996 47.4011V27.163L16.0254 24.1926L0.766602 34.2993V34.3364Z" fill="black" fill-opacity="0.3"/>
</g>
<path opacity="0.8" d="M42.1644 14.3818L22.4316 1.3045V21.5428L26.9181 24.5132L42.1644 14.4064V14.3818Z" fill="#98C1D9"/>
<g opacity="0.8">
<path d="M22.4316 47.7218L42.1644 34.6444V34.6197L26.9181 24.5129L22.4316 27.4833V47.7218Z" fill="#EE6C4D"/>
<path d="M22.4316 47.7218L42.1644 34.6444V34.6197L26.9181 24.5129L22.4316 27.4833V47.7218Z" fill="black" fill-opacity="0.3"/>
</g>
<path opacity="0.8" d="M0.766602 14.0862V34.2999L16.0254 24.193L0.766602 14.0862Z" fill="#293241"/>
<path opacity="0.8" d="M42.1667 34.6201V14.4065L26.9199 24.5133L42.1667 34.6201Z" fill="#293241"/>
<path d="M78.02 31H73.96L73.86 26.06C73.8467 25.6733 73.84 25.0933 73.84 24.32C73.84 22.96 73.8933 21.6467 74 20.38L72.36 29.6H68.46L66.7 20.38C66.8733 22.2333 66.96 23.82 66.96 25.14V26.04L66.86 31H62.8L63.8 17.08H68.88L70.48 26.1L71.92 17.08H77.02L78.02 31ZM84.1603 19.92C85.867 19.92 87.207 20.42 88.1803 21.42C89.167 22.42 89.6603 23.84 89.6603 25.68C89.6603 26.8267 89.4336 27.8333 88.9803 28.7C88.5403 29.5667 87.907 30.2333 87.0803 30.7C86.2536 31.1667 85.2803 31.4 84.1603 31.4C82.4536 31.4 81.107 30.9 80.1203 29.9C79.147 28.9 78.6603 27.48 78.6603 25.64C78.6603 24.4933 78.8803 23.4867 79.3203 22.62C79.7736 21.7533 80.4136 21.0867 81.2403 20.62C82.067 20.1533 83.0403 19.92 84.1603 19.92ZM84.1603 22.76C83.6536 22.76 83.287 22.9867 83.0603 23.44C82.8336 23.8933 82.7203 24.6267 82.7203 25.64C82.7203 26.6933 82.8336 27.4467 83.0603 27.9C83.287 28.34 83.6536 28.56 84.1603 28.56C84.667 28.56 85.0336 28.3333 85.2603 27.88C85.487 27.4267 85.6003 26.6933 85.6003 25.68C85.6003 24.6267 85.487 23.88 85.2603 23.44C85.0336 22.9867 84.667 22.76 84.1603 22.76ZM100.86 31H97.14V27.8C97.14 26.6133 97.3267 25.3333 97.7 23.96L94.68 31H90.84V20.32H94.58V23.6C94.58 24.88 94.3933 26.16 94.02 27.44L97 20.32H100.86V31ZM110.894 31H106.934V20.32H115.014L114.554 23.26H110.894V31ZM122.345 19.92C123.665 19.92 124.658 20.42 125.325 21.42C126.005 22.42 126.345 23.82 126.345 25.62C126.345 26.7267 126.165 27.72 125.805 28.6C125.458 29.4667 124.958 30.1533 124.305 30.66C123.665 31.1533 122.925 31.4 122.085 31.4C121.071 31.4 120.245 31.0467 119.605 30.34V35.14L115.645 35.54V20.32H119.165L119.325 21.36C119.751 20.8533 120.225 20.4867 120.745 20.26C121.278 20.0333 121.811 19.92 122.345 19.92ZM120.785 28.58C121.785 28.58 122.285 27.6133 122.285 25.68C122.285 24.8667 122.231 24.2467 122.125 23.82C122.018 23.3933 121.871 23.1133 121.685 22.98C121.511 22.8333 121.285 22.76 121.005 22.76C120.445 22.76 119.978 23.0933 119.605 23.76V27.84C119.778 28.1067 119.958 28.3 120.145 28.42C120.331 28.5267 120.545 28.58 120.785 28.58ZM136.662 27.54C136.662 27.9133 136.709 28.1933 136.802 28.38C136.895 28.5533 137.062 28.6867 137.302 28.78L136.502 31.32C135.782 31.2667 135.195 31.1333 134.742 30.92C134.289 30.6933 133.915 30.3333 133.622 29.84C132.929 30.88 131.855 31.4 130.402 31.4C129.349 31.4 128.495 31.0867 127.842 30.46C127.202 29.82 126.882 29 126.882 28C126.882 26.8133 127.322 25.9067 128.202 25.28C129.082 24.6533 130.362 24.34 132.042 24.34H132.802V24.08C132.802 23.5467 132.695 23.1867 132.482 23C132.269 22.8133 131.862 22.72 131.262 22.72C130.942 22.72 130.529 22.7733 130.022 22.88C129.529 22.9733 129.022 23.1067 128.502 23.28L127.642 20.76C128.295 20.4933 129.002 20.2867 129.762 20.14C130.535 19.9933 131.235 19.92 131.862 19.92C133.542 19.92 134.762 20.2467 135.522 20.9C136.282 21.54 136.662 22.5267 136.662 23.86V27.54ZM131.622 28.62C131.862 28.62 132.082 28.56 132.282 28.44C132.495 28.32 132.669 28.1667 132.802 27.98V26.4H132.382C131.822 26.4 131.409 26.5 131.142 26.7C130.875 26.9 130.742 27.2067 130.742 27.62C130.742 27.9267 130.822 28.1733 130.982 28.36C131.142 28.5333 131.355 28.62 131.622 28.62ZM144.438 31V27.02H142.398V31H138.438V20.32H142.398V24.18H144.438V20.32H148.398V31H144.438ZM160.098 31H156.378V27.8C156.378 26.6133 156.565 25.3333 156.938 23.96L153.918 31H150.078V20.32H153.818V23.6C153.818 24.88 153.632 26.16 153.258 27.44L156.238 20.32H160.098V31Z" fill="#272D4E"/>
</svg>
