<svg width="200" height="80" viewBox="0 0 200 80" fill="none" xmlns="http://www.w3.org/2000/svg">
<path opacity="0.8" d="M33.3336 1.64014L0.445312 23.4356V23.4766L25.8767 40.3213L33.3336 35.3706V1.64014Z" fill="#98C1D9"/>
<g opacity="0.8">
<path d="M0.444824 57.2272L33.3331 79.0018V45.2716L25.8762 40.3209L0.444824 57.1656V57.2272Z" fill="#EE6C4D"/>
<path d="M0.444824 57.2272L33.3331 79.0018V45.2716L25.8762 40.3209L0.444824 57.1656V57.2272Z" fill="black" fill-opacity="0.3"/>
</g>
<path opacity="0.8" d="M69.4401 23.9696L36.5522 2.17419V35.9046L44.0296 40.8553L69.4401 24.0107V23.9696Z" fill="#98C1D9"/>
<g opacity="0.8">
<path d="M36.5522 79.5365L69.4401 57.7408V57.6996L44.0296 40.855L36.5522 45.8057V79.5365Z" fill="#EE6C4D"/>
<path d="M36.5522 79.5365L69.4401 57.7408V57.6996L44.0296 40.855L36.5522 45.8057V79.5365Z" fill="black" fill-opacity="0.3"/>
</g>
<path opacity="0.8" d="M0.444824 23.4771V57.1664L25.8762 40.3217L0.444824 23.4771Z" fill="#293241"/>
<path opacity="0.8" d="M69.4449 57.7001V24.0107L44.0337 40.8555L69.4449 57.7001Z" fill="#293241"/>
<path d="M91.125 19.5455H97.0227L101.08 29.4318H101.284L105.341 19.5455H111.239V37H106.602V26.9091H106.466L102.58 36.8636H99.7841L95.8977 26.8409H95.7614V37H91.125V19.5455ZM130.393 28.2727C130.393 30.2159 130.016 31.8551 129.26 33.1903C128.504 34.5199 127.484 35.5284 126.2 36.2159C124.916 36.8977 123.484 37.2386 121.905 37.2386C120.314 37.2386 118.876 36.8949 117.592 36.2074C116.314 35.5142 115.297 34.5028 114.541 33.1733C113.791 31.8381 113.416 30.2045 113.416 28.2727C113.416 26.3295 113.791 24.6932 114.541 23.3636C115.297 22.0284 116.314 21.0199 117.592 20.3381C118.876 19.6506 120.314 19.3068 121.905 19.3068C123.484 19.3068 124.916 19.6506 126.2 20.3381C127.484 21.0199 128.504 22.0284 129.26 23.3636C130.016 24.6932 130.393 26.3295 130.393 28.2727ZM125.518 28.2727C125.518 27.2273 125.379 26.3466 125.101 25.6307C124.828 24.9091 124.422 24.3636 123.882 23.9943C123.348 23.6193 122.689 23.4318 121.905 23.4318C121.121 23.4318 120.459 23.6193 119.919 23.9943C119.385 24.3636 118.979 24.9091 118.7 25.6307C118.428 26.3466 118.291 27.2273 118.291 28.2727C118.291 29.3182 118.428 30.2017 118.7 30.9233C118.979 31.6392 119.385 32.1847 119.919 32.5597C120.459 32.929 121.121 33.1136 121.905 33.1136C122.689 33.1136 123.348 32.929 123.882 32.5597C124.422 32.1847 124.828 31.6392 125.101 30.9233C125.379 30.2017 125.518 29.3182 125.518 28.2727ZM132.586 19.5455H137.325V28.6818H137.461L143.665 19.5455H147.688V37H142.95V27.8295H142.847L136.54 37H132.586V19.5455ZM103.398 48.5455V52.3636H95.8636V66H91.125V48.5455H103.398ZM105.164 66V48.5455H112.698C113.994 48.5455 115.127 48.8011 116.099 49.3125C117.07 49.8239 117.826 50.5426 118.366 51.4688C118.906 52.3949 119.175 53.4773 119.175 54.7159C119.175 55.9659 118.897 57.0483 118.34 57.9631C117.789 58.8778 117.013 59.5824 116.013 60.0767C115.019 60.571 113.857 60.8182 112.528 60.8182H108.028V57.1364H111.573C112.13 57.1364 112.604 57.0398 112.996 56.8466C113.394 56.6477 113.698 56.3665 113.908 56.0028C114.124 55.6392 114.232 55.2102 114.232 54.7159C114.232 54.2159 114.124 53.7898 113.908 53.4375C113.698 53.0795 113.394 52.8068 112.996 52.6193C112.604 52.4261 112.13 52.3295 111.573 52.3295H109.903V66H105.164ZM123.268 66H118.155L123.916 48.5455H130.393L136.155 66H131.041L127.223 53.3523H127.087L123.268 66ZM122.314 59.1136H131.928V62.6591H122.314V59.1136ZM137.836 66V48.5455H142.575V55.3636H148.847V48.5455H153.586V66H148.847V59.1818H142.575V66H137.836ZM155.836 48.5455H160.575V57.6818H160.711L166.915 48.5455H170.938V66H166.2V56.8295H166.097L159.79 66H155.836V48.5455Z" fill="#272D4E"/>
</svg>
