<svg width="172" height="184" viewBox="0 0 172 184" fill="none" xmlns="http://www.w3.org/2000/svg">
<path opacity="0.8" d="M82.1238 3.64941L1.09375 54.0135V54.1083L63.7516 93.0326L82.1238 81.5925V3.64941Z" fill="#98C1D9"/>
<g opacity="0.8">
<path d="M1.09375 132.098L82.1238 182.414V104.471L63.7516 93.0312L1.09375 131.955V132.098Z" fill="#EE6C4D"/>
<path d="M1.09375 132.098L82.1238 182.414V104.471L63.7516 93.0312L1.09375 131.955V132.098Z" fill="black" fill-opacity="0.3"/>
</g>
<path opacity="0.8" d="M171.082 55.2479L90.0529 4.88379V82.8269L108.476 94.2667L171.082 55.3427V55.2479Z" fill="#98C1D9"/>
<g opacity="0.8">
<path d="M90.0529 183.649L171.082 133.285V133.19L108.476 94.2656L90.0529 105.705V183.649Z" fill="#EE6C4D"/>
<path d="M90.0529 183.649L171.082 133.285V133.19L108.476 94.2656L90.0529 105.705V183.649Z" fill="black" fill-opacity="0.3"/>
</g>
<path opacity="0.8" d="M1.09375 54.1091V131.957L63.7516 93.0331L1.09375 54.1091Z" fill="#293241"/>
<path opacity="0.8" d="M171.094 133.191V55.3425L108.485 94.2668L171.094 133.191Z" fill="#293241"/>
</svg>
