<svg width="20" height="20" viewBox="0 0 20 20" fill="none" xmlns="http://www.w3.org/2000/svg">
<path d="M10 2.5H4.16667C3.72464 2.5 3.30072 2.67559 2.98816 2.98816C2.67559 3.30072 2.5 3.72464 2.5 4.16667V15.8333C2.5 16.2754 2.67559 16.6993 2.98816 17.0118C3.30072 17.3244 3.72464 17.5 4.16667 17.5H15.8333C16.2754 17.5 16.6993 17.3244 17.0118 17.0118C17.3244 16.6993 17.5 16.2754 17.5 15.8333V10" stroke="#293241" stroke-width="2" stroke-linecap="round" stroke-linejoin="round"/>
<path d="M15.3123 2.18744C15.6439 1.85592 16.0935 1.66968 16.5623 1.66968C17.0312 1.66968 17.4808 1.85592 17.8123 2.18744C18.1439 2.51897 18.3301 2.9686 18.3301 3.43744C18.3301 3.90629 18.1439 4.35592 17.8123 4.68744L9.99984 12.4999L6.6665 13.3333L7.49984 9.99995L15.3123 2.18744Z" stroke="#293241" stroke-width="2" stroke-linecap="round" stroke-linejoin="round"/>
</svg>
