<svg width="46" height="46" viewBox="0 0 46 46" fill="none" xmlns="http://www.w3.org/2000/svg">
<path d="M17.75 15.125C17.75 16.5174 18.3031 17.8527 19.2877 18.8373C20.2723 19.8219 21.6076 20.375 23 20.375C24.3924 20.375 25.7277 19.8219 26.7123 18.8373C27.6969 17.8527 28.25 16.5174 28.25 15.125C28.25 13.7326 27.6969 12.3973 26.7123 11.4127C25.7277 10.4281 24.3924 9.875 23 9.875C21.6076 9.875 20.2723 10.4281 19.2877 11.4127C18.3031 12.3973 17.75 13.7326 17.75 15.125Z" stroke="#FF9900" stroke-width="3" stroke-linecap="round" stroke-linejoin="round"/>
<path d="M44 23C44 44 44 44 23 44C2 44 2 44 2 23C2 2 2 2 23 2C44 2 44 2 44 23Z" stroke="#FF9900" stroke-width="3" stroke-linecap="round" stroke-linejoin="round"/>
<path d="M16.4375 25.625C19.9366 27.3759 26.0634 27.3759 29.5625 25.625M16.4375 36.125L23 28.25M23 28.25L29.5625 36.125M23 28.25V26.9375" stroke="#FF9900" stroke-width="3" stroke-linecap="round" stroke-linejoin="round"/>
</svg>
