<svg width="60" height="60" viewBox="0 0 60 60" fill="none" xmlns="http://www.w3.org/2000/svg">
<g clip-path="url(#clip0_55_117)">
<path d="M0.61048 29.9997C0.610481 13.7488 13.7495 0.609861 30.0003 0.609862C46.2512 0.609863 59.3901 13.7488 59.3901 29.9997C59.3901 46.2505 46.2512 59.3895 30.0003 59.3895C13.7495 59.3895 0.610479 46.2505 0.61048 29.9997ZM55.9325 29.9997C55.9325 15.6505 44.3495 4.06749 30.0003 4.06749C15.6512 4.06749 4.06811 15.6505 4.06811 29.9997C4.06811 44.3488 15.6512 55.9319 30.0003 55.9319C44.3495 55.9319 55.9325 44.3488 55.9325 29.9997Z" fill="#242424"/>
<path d="M27.0614 44.3491L41.4105 30L27.0614 15.6508L29.4817 13.2305L46.2512 30L29.4817 46.7695L27.0614 44.3491Z" fill="#242424"/>
<path d="M43.8301 28.271L43.8301 31.7286L14.4403 31.7286L14.4403 28.271L43.8301 28.271Z" fill="#242424"/>
</g>
<defs>
<clipPath id="clip0_55_117">
<rect width="60" height="60" fill="white" transform="translate(60) rotate(90)"/>
</clipPath>
</defs>
</svg>
