<svg width="60" height="60" viewBox="0 0 60 60" fill="none" xmlns="http://www.w3.org/2000/svg">
<g clip-path="url(#clip0_55_113)">
<path d="M59.3895 30.0003C59.3895 46.2512 46.2505 59.3901 29.9997 59.3901C13.7488 59.3901 0.609863 46.2512 0.609864 30.0003C0.609864 13.7495 13.7488 0.610478 29.9997 0.610478C46.2505 0.610478 59.3895 13.7495 59.3895 30.0003ZM4.06749 30.0003C4.06749 44.3495 15.6505 55.9325 29.9997 55.9325C44.3488 55.9325 55.9319 44.3495 55.9319 30.0003C55.9319 15.6512 44.3488 4.0681 29.9997 4.0681C15.6505 4.0681 4.06749 15.6512 4.06749 30.0003Z" fill="#242424"/>
<path d="M32.9386 15.6509L18.5895 30L32.9386 44.3492L30.5183 46.7695L13.7488 30L30.5183 13.2305L32.9386 15.6509Z" fill="#242424"/>
<path d="M16.1699 31.729L16.1699 28.2714L45.5598 28.2714L45.5598 31.729L16.1699 31.729Z" fill="#242424"/>
</g>
<defs>
<clipPath id="clip0_55_113">
<rect width="60" height="60" fill="white" transform="translate(0 60) rotate(-90)"/>
</clipPath>
</defs>
</svg>
