<svg width="20" height="20" viewBox="0 0 20 20" fill="none" xmlns="http://www.w3.org/2000/svg">
<path d="M18.3326 19.8677L11.4247 12.9598C10.8765 13.3984 10.246 13.7456 9.53327 14.0015C8.82055 14.2573 8.06215 14.3852 7.25805 14.3852C5.26609 14.3852 3.58042 13.6952 2.20103 12.3151C0.821649 10.935 0.13159 9.24928 0.130859 7.25805C0.130859 5.26609 0.820918 3.58042 2.20103 2.20103C3.58115 0.821649 5.26682 0.13159 7.25805 0.130859C9.25001 0.130859 10.936 0.820918 12.3162 2.20103C13.6963 3.58115 14.386 5.26682 14.3852 7.25805C14.3852 8.06215 14.2573 8.82055 14.0015 9.53327C13.7456 10.246 13.3984 10.8765 12.9598 11.4247L19.8677 18.3326L18.3326 19.8677ZM7.25805 12.1923C8.62867 12.1923 9.79387 11.7127 10.7537 10.7537C11.7135 9.7946 12.193 8.6294 12.1923 7.25805C12.1923 5.88744 11.7127 4.7226 10.7537 3.76354C9.7946 2.80447 8.6294 2.32457 7.25805 2.32384C5.88744 2.32384 4.7226 2.80374 3.76354 3.76354C2.80447 4.72333 2.32457 5.88817 2.32384 7.25805C2.32384 8.62867 2.80374 9.79387 3.76354 10.7537C4.72333 11.7135 5.88817 12.193 7.25805 12.1923Z" fill="black" fill-opacity="0.5"/>
</svg>
