<svg width="43" height="42" viewBox="0 0 43 42" fill="none" xmlns="http://www.w3.org/2000/svg">
<path d="M43 21C43 26.5695 40.7348 31.911 36.7028 35.8492C32.6708 39.7875 27.2022 42 21.5 42C15.7978 42 10.3292 39.7875 6.2972 35.8492C2.26517 31.911 0 26.5695 0 21C0 15.4305 2.26517 10.089 6.2972 6.15076C10.3292 2.21249 15.7978 0 21.5 0C27.2022 0 32.6708 2.21249 36.7028 6.15076C40.7348 10.089 43 15.4305 43 21ZM22.2713 15.5033C20.1786 16.3538 15.9987 18.1125 9.73144 20.7795C8.71556 21.1733 8.18254 21.56 8.13237 21.9397C8.05175 22.5776 8.87144 22.8296 9.98675 23.1735L10.4571 23.3179C11.5536 23.667 13.0317 24.0739 13.7976 24.0896C14.4964 24.1071 15.274 23.8271 16.1304 23.2496C21.9873 19.3891 25.0099 17.4379 25.198 17.3959C25.3324 17.3644 25.5205 17.3276 25.6441 17.4379C25.7677 17.5481 25.757 17.7529 25.7436 17.808C25.6629 18.1466 22.446 21.0656 20.7824 22.5776C20.2638 23.0501 19.8956 23.3835 19.8203 23.4596C19.6547 23.6251 19.4862 23.7879 19.3151 23.9479C18.2938 24.9086 17.5306 25.6279 19.3554 26.8039C20.2342 27.3709 20.9383 27.8355 21.6397 28.3027C22.403 28.812 23.1663 29.3186 24.1553 29.9539C24.4061 30.1149 24.648 30.2785 24.8809 30.4447C25.7704 31.0642 26.574 31.6208 27.5603 31.5315C28.1354 31.479 28.7294 30.954 29.0304 29.379C29.7426 25.6594 31.1427 17.6033 31.4653 14.2826C31.4855 14.0066 31.4738 13.7292 31.4303 13.4557C31.4043 13.2353 31.295 13.0322 31.1239 12.8861C30.8791 12.7219 30.5878 12.6365 30.2908 12.642C29.4846 12.6551 28.2402 13.0778 22.2713 15.5033Z" fill="#0CB9F0"/>
</svg>
