<svg width="42" height="42" viewBox="0 0 42 42" fill="none" xmlns="http://www.w3.org/2000/svg">
<path d="M2.94 2.94C5.77707e-07 5.908 0 10.654 0 20.16V21.84C0 31.332 5.77707e-07 36.078 2.94 39.06C5.908 42 10.654 42 20.16 42H21.84C31.332 42 36.078 42 39.06 39.06C42 36.092 42 31.346 42 21.84V20.16C42 10.668 42 5.922 39.06 2.94C36.092 5.8695e-07 31.346 0 21.84 0H20.16C10.668 0 5.922 5.8695e-07 2.94 2.94ZM7.084 12.782H11.9C12.054 20.79 15.582 24.178 18.382 24.878V12.782H22.904V19.684C25.662 19.39 28.574 16.24 29.554 12.768H34.062C33.6946 14.5653 32.9604 16.2675 31.9053 17.7683C30.8502 19.269 29.4969 20.536 27.93 21.49C29.6787 22.36 31.223 23.591 32.461 25.1017C33.699 26.6124 34.6025 28.3685 35.112 30.254H30.142C29.078 26.936 26.418 24.36 22.904 24.01V30.254H22.344C12.768 30.254 7.308 23.702 7.084 12.782Z" fill="#0060FF"/>
</svg>
